<svg xmlns="http://www.w3.org/2000/svg" width="25" height="31.31" viewBox="0 0 25 31.31">
  <path id="files" d="M19.765,19.1H9.734v1.136H19.765Zm0,3.762H9.734v1.215H19.765ZM13.536,4.016V7.8h-3.8V11.58h-3.7V35.326H23.547v-3.8h3.7V27.841h3.782V4.017h-17.5Zm8.8,30.094H7.246v-21.4H22.332Zm3.7-3.723H23.547V11.578h-12.6V9.012H26.034V30.387Zm3.782-3.762H27.249V7.8h-12.5V5.23H29.816ZM19.765,30.367H9.734v1.215H19.765Zm0-3.781H9.734V27.8H19.765ZM19.784,15.3H9.753v1.254H19.784Z" transform="translate(-6.031 -4.016)" fill="#fff"/>
</svg>
